# xmcd
#
# Track frame offsets:
#	183
#	11703
#	30373
#	42718
#	55895
#	70500
#	87680
#	98783
#	111078
#	124390
#	134025
#	145875
#	167775
#	181253
#	203023
#
# Disc length: 2824
#
# Revision: 1
# Processed by: cddbd v1.5.1PL0 Copyright (c) Steve Scherf et al.
# Submitted via: dBpowerAMP V4.0
# Normalized: r0:TDELIM( - )
#
DISCID=da0b060f
DTITLE=Various Artist - Totally Country
DYEAR=1997
DGENRE=Country
TTITLE0=Eddie Rabbitt - B-B-Burning up with Love
TTITLE1=Juice Newton - Angel of the Morning
TTITLE2=Tanya Tucker - Strong Enough to Bend
TTITLE3=Suzy Bogguss - I Want to be a Cowboys Sweetheart
TTITLE4=Crystal Gale - Cry Me a River
TTITLE5=Nitty Gritty Dirt Band - All  I Have to do is Dream
TTITLE6=Chris Leddoux - So You Want to be a Cowboy
TTITLE7=Billie Jo Spears - What I've Got in Mind
TTITLE8=Glen Campbell - Southern Nights
TTITLE9=George Jones - The Race is On
TTITLE10=Tennessee Ernie Ford - Sixteen Tons
TTITLE11=Dan Seals - Everything that Glitters (Is Not Gold)
TTITLE12=Highway 101 - Home on the Range
TTITLE13=Charlie Daniels - Tennessee Two Step
TTITLE14=Wanda Jackson - Jambalaya (on The Bayou)
EXTD=
EXTT0=
EXTT1=
EXTT2=
EXTT3=
EXTT4=
EXTT5=
EXTT6=
EXTT7=
EXTT8=
EXTT9=
EXTT10=
EXTT11=
EXTT12=
EXTT13=
EXTT14=
PLAYORDER=
